<svg xmlns="http://www.w3.org/2000/svg" width="50.2" height="31.5" viewBox="0 0 50.2 31.5"><path fill="#010101" d="M20.2 14.1a6.5 6.5 0 0 0 4.2-6.4c0-6.2-4.5-7.7-9.8-7.7H0v30.9h15c5.6 0 10.9-2.7 10.9-9 0-3.9-1.9-6.7-5.7-7.8zM6.8 5.3h6.4c2.4 0 4.6.7 4.6 3.5s-1.7 3.7-4.1 3.7H6.8zm7.3 20.3H6.8v-8.5h7.4c3 0 4.9 1.3 4.9 4.4s-2.3 4.1-5 4.1zM45.3 4.7H32.8V1.6h12.5v3.1zM50.2 20c0-6.6-3.9-12.1-10.9-12.1S27.9 13 27.9 19.7s4.4 11.8 11.4 11.8c5.4 0 8.8-2.4 10.5-7.5h-5.4c-.6 1.9-3 2.9-4.9 2.9-3.6 0-5.5-2.1-5.5-5.7h16.2zM34 17.3a4.9 4.9 0 0 1 5.1-4.8c3.1 0 4.7 1.8 4.9 4.8z"/></svg>