<svg xmlns="http://www.w3.org/2000/svg" width="59" height="37" viewBox="0 0 59 37"><path d="M23.7 16.6a7.8 7.8 0 0 0 5-7.6c0-7.2-5.3-9-11.5-9H0v36.3h17.6c6.6 0 12.8-3.2 12.8-10.6 0-4.5-2.2-7.8-6.7-9.1zM8 6.2h7.5c2.8 0 5.4.9 5.4 4.1s-2 4.4-4.8 4.4H8zm8.6 23.9H8v-10h8.7c3.5 0 5.7 1.5 5.7 5.2s-2.7 4.8-5.8 4.8zM53.2 5.5H38.5V1.9h14.7zm5.8 18c0-7.8-4.6-14.2-12.8-14.2s-13.4 6-13.4 13.9S38 37 46.2 37c6.3 0 10.3-2.8 12.3-8.8h-6.3c-.7 2.2-3.5 3.4-5.8 3.4-4.2 0-6.4-2.5-6.4-6.7h19zm-19-3.2a5.7 5.7 0 0 1 5.8-5.6h.2c3.6 0 5.5 2.1 5.7 5.6z"/></svg>