<svg xmlns="http://www.w3.org/2000/svg" width="50" height="50" viewBox="0 0 50 50"><path d="M25 0a25 25 0 1 0 25 25A25 25 0 0 0 25 0zm16.5 11.5a21.8 21.8 0 0 1 4.9 13.3 53.3 53.3 0 0 0-14.9-.7c-.6-1.4-1.1-2.6-1.9-4.2 7.9-3.2 11.5-7.8 11.9-8.4zm-2.3-2.4c-.4.5-3.6 4.8-11.2 7.7a115.4 115.4 0 0 0-8-12.5 21.1 21.1 0 0 1 19.2 4.8zM15.9 5.7a123.7 123.7 0 0 1 7.9 12.4 86.5 86.5 0 0 1-19.7 2.6 21.7 21.7 0 0 1 11.8-15zM3.6 25a1.3 1.3 0 0 1 .1-.6 77.3 77.3 0 0 0 21.9-3.1c.6 1.2 1.2 2.5 1.7 3.7-7.7 2.1-14.7 8.4-18.2 14.3A21.5 21.5 0 0 1 3.6 25zm8.3 16.9c2.2-4.6 8.3-10.5 16.9-13.4a90.5 90.5 0 0 1 4.5 16.2 21.5 21.5 0 0 1-21.4-2.8zm25 .8a92.5 92.5 0 0 0-4.1-15.2 33.2 33.2 0 0 1 13.3.9 21.4 21.4 0 0 1-9.2 14.3z"/></svg>