<svg xmlns="http://www.w3.org/2000/svg" width="31.5" height="31.5" viewBox="0 0 31.5 31.5"><path fill="#010101" d="M6.3 13.8a9.7 9.7 0 0 1 5.4-6.7c.2.3 1.9 2.7 3.5 5.5a36.3 36.3 0 0 1-8.9 1.2zm15.8-5.2a9.7 9.7 0 0 0-8.6-2.2 65.6 65.6 0 0 1 3.6 5.6 10.8 10.8 0 0 0 5-3.4zM9.8 23.3a9.8 9.8 0 0 0 9.7 1.3 33.5 33.5 0 0 0-2.1-7.3 13.9 13.9 0 0 0-7.6 6zm7-7.6c-.3-.5-.5-1.1-.8-1.6a37.9 37.9 0 0 1-9.9 1.4v.3a9.8 9.8 0 0 0 2.5 6.4 15 15 0 0 1 8.2-6.5zm2.4 1.2a37.2 37.2 0 0 1 1.9 6.8 9.3 9.3 0 0 0 4.1-6.4 14 14 0 0 0-6-.4zm-1.4-3.4l.9 1.9a20.7 20.7 0 0 1 6.6.3 9.5 9.5 0 0 0-2.1-6 12.8 12.8 0 0 1-5.4 3.8zM31.5 3.4v24.7a3.4 3.4 0 0 1-3.4 3.4H3.4A3.4 3.4 0 0 1 0 28.1V3.4A3.4 3.4 0 0 1 3.4 0h24.7a3.4 3.4 0 0 1 3.4 3.4zM27 15.7A11.3 11.3 0 1 0 15.7 27 11.3 11.3 0 0 0 27 15.7z"/></svg>