<svg id="Layer_1" data-name="Layer 1" xmlns="http://www.w3.org/2000/svg" width="516.3" height="287.3" viewBox="0 0 516.3 287.3"><title>hovski</title><path d="M516.3,185.2c0,6.5,0,12.9-.1,19.4s-.6,12.7-.9,19.1c-.2,4.2-.2,8.4-.5,12.6s-.9,9.5-1.5,14.2c-.3,2.6-.9,5.2-1.4,7.8a7.7,7.7,0,0,1-6,5.4c-3.5.4-6.6-.4-8.8-3.2s-4.7-6.6-7-10a23.4,23.4,0,0,1-1.5-2.7c-28.6,16.1-56.2,14-83.5-3.8-.4,1.6-.7,3-1,4.4a92.4,92.4,0,0,1-5,17.8,20.2,20.2,0,0,1-2.4,4.6,2.6,2.6,0,0,1-2.4.5,67.7,67.7,0,0,1-8.7-5c-1.5-1-2.4-1.4-4.2-.4a42,42,0,0,1-9.5,4.7,45.3,45.3,0,0,1-11,1.9,73.4,73.4,0,0,1-12.4-.3,116.6,116.6,0,0,1-25.9-5.7,104.6,104.6,0,0,1-29.3-16.1,35.8,35.8,0,0,1-6.4-6.5c-2.7-3.2-2.8-6.8-.2-10.2s3.6-4.2,5.9-6.8c.8,1.5,1.4,2.4,1.8,3.3,2,5,3.9,10.1,6.1,15.1a4.5,4.5,0,0,0,3,2.2,95,95,0,0,0,13.1.8,82.3,82.3,0,0,0,14-1.6c7.2-1.5,14.4-3.1,20.9-6.8a56.5,56.5,0,0,0,9.2-6.1c1.8-1.6,2.8-4.1,4.3-6.5-4.6-2.4-8.7-4.7-12.9-6.7-11.9-5.7-24-10.9-35.7-16.9-8.8-4.4-15.8-11.1-21.5-19.2-3.2-4.5-4.2-9.5-1-14.2a33.9,33.9,0,0,1,8.5-8.8,62.5,62.5,0,0,1,13.1-7.9,155.5,155.5,0,0,1,17.8-6.1,47.7,47.7,0,0,1,19.9-1.2c8.5,1.3,14.6,6.1,19,13.3a2.9,2.9,0,0,1,.2.9c.1.1,0,.2-.1.6a1.9,1.9,0,0,1-.9-.4c-4.3-4.4-9.7-4.4-15.2-3.7-8.6,1-16.3,4.5-23.9,8.3a68.3,68.3,0,0,0-16.8,12.2c-2.7,2.5-4.5,5.9-6.5,9.1-.9,1.3-.5,2.6,1.2,3.2l22.5,9c16,6.5,31.5,14,43.5,27.1l1.7,1.6c.5-3.3,1-6.3,1.4-9.4s1.1-8.4,1.8-12.6q1.5-8.9,3.3-17.7c2.1-10.8,4.5-21.6,6.6-32.4,1.2-6.3,2.1-12.5,3.1-18.8s1.9-11.7,2.7-17.5c.5-3.6.9-7.2,1.4-10.8.3-1.7.6-3.4,1-5.1s3.3-3.9,5.5-1.6a14.1,14.1,0,0,1,4.1,10c.1,9,.3,18,.5,27s.5,17.3.7,25.9v10.3l.7.2,38-37.1c3,1.4,5.8,6.1,4.5,9.4a68.7,68.7,0,0,1-6.5,13c-6.1,9.1-12.8,17.8-19,26.9s-10.3,15.6-15,23.6a39.8,39.8,0,0,0-5.6,16.9c-.1,1.5.7,1.6,1.7,1.7,4.8.6,9.6,1.3,14.4,1.6s10.3.8,15.4.7a118.3,118.3,0,0,0,14.6-1.4c6.7-.9,13.3-1.9,19.9-3.2,4-.7,7.9-2,11.8-2.9,2.3-.5,2.6-2.2,2.9-4s1.1-6,1.7-8.9,1.9-8.4,2.8-12.5c.5-2.3,1.2-4.6,1.7-6.9,1-5.4,2-10.7,2.9-16s1.2-7.9,1.7-11.9c1-8.6,1.8-17.2,2.9-25.8a27.1,27.1,0,0,1,2.2-7.5c1.1-2.5,3-2.8,4.5-.7s3.7,5.3,4.2,8.3a222.4,222.4,0,0,1,3.6,24.3C516.6,170.1,516.3,177.7,516.3,185.2Z" fill="#231f20"/><path d="M160.1,16.4c-2.6,10.8-5.4,21.6-8.2,32.3L144.4,78c-1.8,7.1-3.5,14.3-5.3,21.4s-3.2,11.9-4.6,17.8c-.9,4-1.6,8-2.5,11.9s-1.7,5.9-2.3,9c-1.8,9.2-3.5,18.5-5.2,27.7-1.1,5.5-2.2,10.9-3.2,16.4s-1.9,11.1-2.8,16.7c-.7,3.5-1.4,7-2,10.6s-1.7,9.3-2.7,14-2.2,10.8-3.4,16.3-2.1,11.7-3.8,17.3-4.2,13.7-7.9,19.9c-1.5,2.5-3.3,4.1-6.2,4.6a45.3,45.3,0,0,1-17.6-.4,4.3,4.3,0,0,1-3.7-4.1,51.6,51.6,0,0,1,.5-15.7c1-5.8,2.1-11.5,3.4-17.2,2.2-10.5,4.5-21.1,6.9-31.6.8-3.4,1.9-6.7,2.8-10.1s1.5-6.2,2.3-9.3,2.1-7.1,3-10.6a26.2,26.2,0,0,0,.6-4.3c-3.5.7-6.7,1.4-10,1.9-5,.9-10,1.8-15,2.5s-10.6,1.4-16,2c-2.5.3-5,.5-7.6.6A2,2,0,0,0,40,187q-2.1,8.7-4.5,17.4c-1.4,5-3.2,10-4.7,15-.8,2.8-1.3,5.6-2.1,8.4s-2.1,7.5-3.3,11.3a2.2,2.2,0,0,1-1.6,1.5c-4.9,1-14.7-3.7-16.6-8.5a25.8,25.8,0,0,1-1.6-9.2c-.1-10.1,2.3-20,3.8-29.9.4-2.6,1.3-5.2,2-7.9l-1.2-.4c-6.2-1-8.1-6-10-10.9-.7-1.8.7-2.3,2-2.6l10.3-1.8c3.2-.4,3.6-.8,4.5-3.8,1.5-5.3,3.1-10.5,4.7-15.8q1.4-5,3-9.9c1.1-3.4,2.5-6.8,3.6-10.2s2.7-8.5,4.1-12.8c3.6-11.2,7.2-22.4,10.9-33.5a36.8,36.8,0,0,1,2.6-5.7c.9-1.6,2.2-1.8,3.6-.7,3.4,2.8,6.1,5.7,5.6,10.5-.7,8.5-1.2,17-2,25.5-.5,5.4-1.2,10.8-1.9,16.2s-1.6,9.2-2.4,13.9-1.5,9.4-2.3,14c-.3,1.7-.7,3.2-1.2,5.3,3.3-.6,6.3-1.2,9.2-1.6l35.4-3.9a34.7,34.7,0,0,1,5.6-.1c1.3.1,1.8-.5,2.2-1.6s1.7-5.2,2.5-7.8c1.6-5.1,3.1-10.2,4.7-15.2,2.4-7.4,4.8-14.7,7.3-22,1.8-5.1,3.9-10,5.8-15.1s3.6-9.9,5.5-14.8,4.2-9.8,6.2-14.8c3.2-7.8,6.1-15.6,9.2-23.5l6.3-15.5L155.3,1a8.8,8.8,0,0,1,.5-1,14,14,0,0,1,4.7,8.9A23.7,23.7,0,0,1,160.1,16.4Z" fill="#231f20"/><path d="M201.7,220a89.3,89.3,0,0,0-.5-11.6c-.3-3.4-1.4-6.8-1.9-10.2a63.6,63.6,0,0,0-6.4-20.2,65.1,65.1,0,0,0-18.1-21.9c-5.3-4.2-10.6-8.4-17.5-9.9s-13.4,1.9-14.1,9.5c-.5,4.5-1.6,8.2-4.4,11.8-5.2,6.9-8.8,14.8-11.9,22.8s-6.3,17.5-8.9,26.3a168.8,168.8,0,0,0-4.1,20,58.1,58.1,0,0,0,.3,21.2A30,30,0,0,0,129.9,279a102.8,102.8,0,0,0,13.1,5.9c3.8,1.4,11.4,2.3,11.8,2.3,7.7.8,14.3-2.4,20.3-6.4a48.9,48.9,0,0,0,9.6-8.6,62.5,62.5,0,0,0,10.6-15.8c2-4.1,3.1-8.8,4.4-13.3a31.1,31.1,0,0,0,.8-4.4,41.1,41.1,0,0,0,1.2-6.1C201.9,228.4,201.8,224.2,201.7,220Zm-30.8-32.5c-.1,7-.2,14.1-.8,21.1-.3,4.1-1.5,8.1-2.4,12.2a82.1,82.1,0,0,1-1.8,8.3c-1.5,4.7-3.1,9.4-4.9,13.9a88.9,88.9,0,0,1-10.1,17.7,42.9,42.9,0,0,1-9.9,9.6l-2.7,1.5a31.6,31.6,0,0,1-1.8-2.7c-2.1-6.4-3.6-12.9-3.3-19.7s.4-13.2,1.3-19.7a193,193,0,0,1,4.3-21.4,134.4,134.4,0,0,1,6-18.6c2.8-6.6,6.4-13,9.8-19.3a48.3,48.3,0,0,1,5.1-6.8c.4-.4,1.3-.4,2-.5a2.6,2.6,0,0,0,2.1-1.7c3.5-.3,3.9,0,4.5,3.3s1.6,8.3,2.1,12.4A89.4,89.4,0,0,1,170.9,187.5Z" fill="#231f20"/><path d="M291.6,122.8c-.1,6-.3,12-.5,18.1s-.4,11.2-.5,16.8-.3,12.6-.6,18.9c-.3,7.8-.5,15.6-1.1,23.4-.5,5.7-1.7,11.5-2.5,17.2-.4,2.9-.6,5.8-1.1,8.7s-1.2,4.4-1.8,6.7-1.2,5.6-2,8.3-2.1,6.9-3.5,10.2a109.6,109.6,0,0,1-5.9,11.9,66,66,0,0,1-8.2,10.7c-3.6,3.8-8.4,4.2-13.3,2.6a69.6,69.6,0,0,1-20.2-11.5c-5.2-4.2-9.5-9.1-11.6-15.5-1.3-3.9-2.2-8-3.1-12a91.3,91.3,0,0,1-1.5-10.3c-.3-3.3-.3-6.6-.5-10-.3-5.1-.9-10.2-.9-15.3-.1-9,.1-18,.1-26.9,0-3.7-.2-7.4-.3-11.1,0-.8-.1-1.6-.2-2.7a13.7,13.7,0,0,1,2.5.9,23.8,23.8,0,0,1,10.8,12.2c2.5,6.4,3.5,13.1,4.7,19.8.8,4.6,1.8,9.3,2.6,13.9s1.2,8,2.1,11.9c1.2,5.5,2.6,10.9,3.9,16.3l.8,1.2,4.3-11c1.1-2.6,2.5-5.1,3.6-7.8s3.1-8.3,4.6-12.4,3.7-9.1,5.3-13.7,3.5-10.7,5.2-16.1c.4-1.3,1-2.5,1.5-3.8,2.3-5.6,4.4-11.3,6.9-16.8,3.4-7.6,6.9-15,10.7-22.3,2.4-4.6,5.5-8.7,8.3-13h.9A6.9,6.9,0,0,1,291.6,122.8Z" fill="#231f20"/></svg>