<svg xmlns="http://www.w3.org/2000/svg"><symbol id="linkedin" viewBox="0 0 31.1 31.1"><path fill="#010101" d="M28.9 0H2.2A2.2 2.2 0 0 0 0 2.2v26.7a2.2 2.2 0 0 0 2.2 2.2h26.7a2.2 2.2 0 0 0 2.2-2.2V2.2A2.2 2.2 0 0 0 28.9 0zM9.4 26.7H4.8V11.8h4.6v14.9zM7.1 9.8a2.7 2.7 0 1 1 2.7-2.7 2.7 2.7 0 0 1-2.7 2.7zm19.6 16.9h-4.6v-7.2c0-1.8 0-4-2.4-4s-2.8 1.9-2.8 3.8v7.4h-4.6V11.8h4.4v2.1h.1a4.8 4.8 0 0 1 4.4-2.4c4.6 0 5.5 3 5.5 7z"/></symbol><symbol id="chevron" viewBox="0 0 22 34.1"><path fill="#0e0e0e" d="M.7 15.2L15.2.8a2.5 2.5 0 0 1 3.6-.1l2.4 2.4a2.6 2.6 0 0 1 .1 3.6h-.1L11 17l10.2 10.3a2.5 2.5 0 0 1 .1 3.6h-.1l-2.4 2.4a2.5 2.5 0 0 1-3.6 0L.8 18.8a2.5 2.5 0 0 1-.1-3.6z"/></symbol><symbol id="dribbble" viewBox="0 0 31.5 31.5"><path fill="#010101" d="M6.3 13.8a9.7 9.7 0 0 1 5.4-6.7c.2.3 1.9 2.7 3.5 5.5a36.3 36.3 0 0 1-8.9 1.2zm15.8-5.2a9.7 9.7 0 0 0-8.6-2.2 65.6 65.6 0 0 1 3.6 5.6 10.8 10.8 0 0 0 5-3.4zM9.8 23.3a9.8 9.8 0 0 0 9.7 1.3 33.5 33.5 0 0 0-2.1-7.3 13.9 13.9 0 0 0-7.6 6zm7-7.6c-.3-.5-.5-1.1-.8-1.6a37.9 37.9 0 0 1-9.9 1.4v.3a9.8 9.8 0 0 0 2.5 6.4 15 15 0 0 1 8.2-6.5zm2.4 1.2a37.2 37.2 0 0 1 1.9 6.8 9.3 9.3 0 0 0 4.1-6.4 14 14 0 0 0-6-.4zm-1.4-3.4l.9 1.9a20.7 20.7 0 0 1 6.6.3 9.5 9.5 0 0 0-2.1-6 12.8 12.8 0 0 1-5.4 3.8zM31.5 3.4v24.7a3.4 3.4 0 0 1-3.4 3.4H3.4A3.4 3.4 0 0 1 0 28.1V3.4A3.4 3.4 0 0 1 3.4 0h24.7a3.4 3.4 0 0 1 3.4 3.4zM27 15.7A11.3 11.3 0 1 0 15.7 27 11.3 11.3 0 0 0 27 15.7z"/></symbol><symbol id="behance" viewBox="0 0 50.2 31.5"><path fill="#010101" d="M20.2 14.1a6.5 6.5 0 0 0 4.2-6.4c0-6.2-4.5-7.7-9.8-7.7H0v30.9h15c5.6 0 10.9-2.7 10.9-9 0-3.9-1.9-6.7-5.7-7.8zM6.8 5.3h6.4c2.4 0 4.6.7 4.6 3.5s-1.7 3.7-4.1 3.7H6.8zm7.3 20.3H6.8v-8.5h7.4c3 0 4.9 1.3 4.9 4.4s-2.3 4.1-5 4.1zM45.3 4.7H32.8V1.6h12.5v3.1zM50.2 20c0-6.6-3.9-12.1-10.9-12.1S27.9 13 27.9 19.7s4.4 11.8 11.4 11.8c5.4 0 8.8-2.4 10.5-7.5h-5.4c-.6 1.9-3 2.9-4.9 2.9-3.6 0-5.5-2.1-5.5-5.7h16.2zM34 17.3a4.9 4.9 0 0 1 5.1-4.8c3.1 0 4.7 1.8 4.9 4.8z"/></symbol><symbol id="instagram" viewBox="0 0 31.6 31.6"><path fill="#010101" d="M15.8 7.7a8.1 8.1 0 1 0 8.1 8.1 8.1 8.1 0 0 0-8.1-8.1zm0 13.4a5.3 5.3 0 1 1 5.3-5.3 5.3 5.3 0 0 1-5.3 5.3zM26.1 7.4a1.9 1.9 0 0 1-1.9 1.9 2 2 0 0 1-1.9-1.9 1.9 1.9 0 0 1 1.9-1.9 1.8 1.8 0 0 1 1.9 1.9zm5.4 1.9a9 9 0 0 0-2.6-6.6A8.9 8.9 0 0 0 22.3.1h-13a9 9 0 0 0-6.6 2.6A8.9 8.9 0 0 0 .1 9.3c-.1 2.6-.1 10.4 0 13a9 9 0 0 0 2.6 6.6 9 9 0 0 0 6.6 2.6c2.6.1 10.4.1 13 0a8.9 8.9 0 0 0 6.6-2.6 9 9 0 0 0 2.6-6.6c.1-2.6.1-10.4 0-13zm-3.4 15.8a5 5 0 0 1-3 3c-2.1.8-7 .6-9.3.6s-7.2.2-9.3-.6a5 5 0 0 1-3-3c-.8-2.1-.6-7-.6-9.3s-.2-7.2.6-9.3a5 5 0 0 1 3-3c2.1-.8 7-.7 9.3-.7s7.2-.1 9.3.7a5 5 0 0 1 3 3c.8 2.1.7 7 .7 9.3s.1 7.2-.7 9.3z"/></symbol></svg>