<svg xmlns="http://www.w3.org/2000/svg" width="31.6" height="31.6" viewBox="0 0 31.6 31.6"><path fill="#010101" d="M15.8 7.7a8.1 8.1 0 1 0 8.1 8.1 8.1 8.1 0 0 0-8.1-8.1zm0 13.4a5.3 5.3 0 1 1 5.3-5.3 5.3 5.3 0 0 1-5.3 5.3zM26.1 7.4a1.9 1.9 0 0 1-1.9 1.9 2 2 0 0 1-1.9-1.9 1.9 1.9 0 0 1 1.9-1.9 1.8 1.8 0 0 1 1.9 1.9zm5.4 1.9a9 9 0 0 0-2.6-6.6A8.9 8.9 0 0 0 22.3.1h-13a9 9 0 0 0-6.6 2.6A8.9 8.9 0 0 0 .1 9.3c-.1 2.6-.1 10.4 0 13a9 9 0 0 0 2.6 6.6 9 9 0 0 0 6.6 2.6c2.6.1 10.4.1 13 0a8.9 8.9 0 0 0 6.6-2.6 9 9 0 0 0 2.6-6.6c.1-2.6.1-10.4 0-13zm-3.4 15.8a5 5 0 0 1-3 3c-2.1.8-7 .6-9.3.6s-7.2.2-9.3-.6a5 5 0 0 1-3-3c-.8-2.1-.6-7-.6-9.3s-.2-7.2.6-9.3a5 5 0 0 1 3-3c2.1-.8 7-.7 9.3-.7s7.2-.1 9.3.7a5 5 0 0 1 3 3c.8 2.1.7 7 .7 9.3s.1 7.2-.7 9.3z"/></svg>