<svg xmlns="http://www.w3.org/2000/svg" width="50" height="50" viewBox="0 0 50 50"><path d="M25 12.2A12.8 12.8 0 1 0 37.8 25 12.8 12.8 0 0 0 25 12.2zm0 21.1a8.3 8.3 0 1 1 8.3-8.3 8.3 8.3 0 0 1-8.3 8.3zm16.3-21.6a3 3 0 1 1 0-.1zm8.5 3c-.2-4-1.1-7.6-4-10.5S39.3.4 35.3.2 18.8-.1 14.7.2s-7.6 1.1-10.5 4-3.8 6.5-4 10.5-.3 16.5 0 20.6 1.1 7.6 4 10.5 6.5 3.8 10.5 4 16.5.3 20.6 0 7.6-1.1 10.5-4 3.8-6.5 4-10.5.3-16.5 0-20.6zm-5.3 25a8.7 8.7 0 0 1-4.8 4.8c-3.3 1.3-11.1 1-14.7 1s-11.5.3-14.7-1a8.7 8.7 0 0 1-4.8-4.8c-1.3-3.3-1-11.1-1-14.7s-.3-11.5 1-14.7a8.7 8.7 0 0 1 4.8-4.8c3.3-1.3 11.1-1 14.7-1s11.5-.3 14.7 1a8.7 8.7 0 0 1 4.8 4.8c1.3 3.3 1 11.1 1 14.7s.3 11.5-1 14.7z"/></svg>